<svg xmlns="http://www.w3.org/2000/svg" viewBox="0 0 512 512">
  <rect width="512" height="512" rx="96" fill="#2C2418"/>
  <!-- Flame shape -->
  <path d="M256 80c0 0-80 100-80 180c0 60 30 100 50 120c-10-30-5-60 10-85c15-25 40-50 40-50s25 25 40 50c15 25 20 55 10 85c20-20 50-60 50-120c0-80-80-180-80-180z" fill="#C4592A" opacity="0.9"/>
  <path d="M256 160c0 0-45 60-45 110c0 35 18 60 30 75c-6-18-3-36 6-52c9-16 24-32 24-32s15 16 24 32c9 16 12 34 6 52c12-15 30-40 30-75c0-50-45-110-45-110z" fill="#F2A65A" opacity="0.85"/>
  <!-- R letter -->
  <text x="256" y="370" text-anchor="middle" font-family="Georgia, serif" font-size="160" font-weight="700" fill="#F8F5EE" opacity="0.95">R</text>
</svg>
