<svg xmlns="http://www.w3.org/2000/svg" viewBox="0 0 1200 630">
  <rect width="1200" height="630" fill="#F8F5EE"/>
  <!-- Subtle radial glow -->
  <circle cx="600" cy="280" r="300" fill="#C4592A" opacity="0.06"/>
  <!-- Flame -->
  <path d="M600 120c0 0-60 75-60 135c0 45 22 75 38 90c-8-22-4-45 8-64c11-19 30-38 30-38s19 19 30 38c11 19 15 42 8 64c15-15 38-45 38-90c0-60-60-135-60-135z" fill="#C4592A" opacity="0.85"/>
  <path d="M600 175c0 0-32 42-32 78c0 25 13 42 21 52c-4-13-2-25 4-36c7-11 17-22 17-22s10 11 17 22c7 11 9 23 4 36c8-10 21-27 21-52c0-36-32-78-32-78z" fill="#F2A65A" opacity="0.8"/>
  <!-- Title -->
  <text x="600" y="400" text-anchor="middle" font-family="Georgia, 'Book Antiqua', Palatino, serif" font-size="72" font-weight="400" fill="#2C2418" letter-spacing="-2">Recall</text>
  <!-- Subtitle -->
  <text x="600" y="450" text-anchor="middle" font-family="'DM Sans', sans-serif" font-size="22" fill="#8A7D6B" letter-spacing="4">SPANISH VOCABULARY</text>
  <!-- Bottom accent line -->
  <rect x="550" y="480" width="100" height="3" rx="1.5" fill="#C4592A"/>
</svg>
